<svg width="162" height="152" viewBox="0 0 162 152" fill="none" xmlns="http://www.w3.org/2000/svg">
<path d="M91.9445 50.6667C85.5594 50.6667 58.146 51.2937 40.5 77.8842V50.6667C40.5 33.9023 26.8755 20.2667 10.125 20.2667C4.5341 20.2667 0 24.8045 0 30.4C0 35.9955 4.5341 40.5333 10.125 40.5333C15.7064 40.5333 20.25 45.0807 20.25 50.6667V131.733C20.25 142.912 29.3309 152 40.5 152H96.1875C98.9845 152 101.25 149.733 101.25 146.933V141.867C101.25 136.271 96.7159 131.733 91.125 131.733H81L121.5 101.333V146.933C121.5 149.733 123.765 152 126.562 152H136.688C139.485 152 141.75 149.733 141.75 146.933V81.6557C138.494 82.5012 135.14 83.0933 131.625 83.0933C112.068 83.0933 95.7066 69.1442 91.9445 50.6667V50.6667ZM141.75 20.2667H121.5L101.25 0V42.56C101.25 59.3497 114.849 72.96 131.625 72.96C148.401 72.96 162 59.3497 162 42.56V0L141.75 20.2667ZM118.969 45.6C116.172 45.6 113.906 43.3327 113.906 40.5333C113.906 37.734 116.172 35.4667 118.969 35.4667C121.766 35.4667 124.031 37.734 124.031 40.5333C124.031 43.3327 121.766 45.6 118.969 45.6ZM144.281 45.6C141.484 45.6 139.219 43.3327 139.219 40.5333C139.219 37.734 141.484 35.4667 144.281 35.4667C147.078 35.4667 149.344 37.734 149.344 40.5333C149.344 43.3327 147.078 45.6 144.281 45.6Z" fill="#AAD5DB"/>
</svg>
